solid 
 facet normal  1.000000e+00  0.000000e+00  0.000000e+00
   outer loop
     vertex  5.700000e+00  8.140000e-02  1.720000e-01
     vertex  5.700000e+00  0.000000e+00  1.720000e-01
     vertex  5.700000e+00  0.000000e+00 -1.600000e-01
   endloop
 endfacet
 facet normal  1.000000e+00  0.000000e+00  0.000000e+00
   outer loop
     vertex  5.700000e+00  8.140000e-02  1.720000e-01
     vertex  5.700000e+00  0.000000e+00 -1.600000e-01
     vertex  5.700000e+00  8.140000e-02 -1.600000e-01
   endloop
 endfacet
endsolid
