solid 
 facet normal  0.000000e+00  1.000000e+00  0.000000e+00
   outer loop
     vertex  4.800000e+00  8.140000e-02  1.720000e-01
     vertex  4.800000e+00  8.140000e-02 -4.800000e-02
     vertex  0.000000e+00  8.140000e-02  0.000000e+00
   endloop
 endfacet
 facet normal  0.000000e+00  1.000000e+00  0.000000e+00
   outer loop
     vertex  4.800000e+00  8.140000e-02  1.720000e-01
     vertex  0.000000e+00  8.140000e-02  0.000000e+00
     vertex  0.000000e+00  8.140000e-02  1.720000e-01
   endloop
 endfacet
 facet normal -9.999500e-03  0.000000e+00 -9.999500e-01
   outer loop
     vertex  0.000000e+00  8.140000e-02  0.000000e+00
     vertex  4.800000e+00  8.140000e-02 -4.800000e-02
     vertex  4.800000e+00  0.000000e+00 -4.800000e-02
   endloop
 endfacet
 facet normal -9.999500e-03 -0.000000e+00 -9.999500e-01
   outer loop
     vertex  0.000000e+00  8.140000e-02  0.000000e+00
     vertex  4.800000e+00  0.000000e+00 -4.800000e-02
     vertex  0.000000e+00  0.000000e+00  0.000000e+00
   endloop
 endfacet
 facet normal -0.000000e+00 -1.000000e+00  0.000000e+00
   outer loop
     vertex  4.800000e+00  0.000000e+00  1.720000e-01
     vertex  0.000000e+00  0.000000e+00  1.720000e-01
     vertex  0.000000e+00  0.000000e+00  0.000000e+00
   endloop
 endfacet
 facet normal  0.000000e+00 -1.000000e+00 -0.000000e+00
   outer loop
     vertex  4.800000e+00  0.000000e+00  1.720000e-01
     vertex  0.000000e+00  0.000000e+00  0.000000e+00
     vertex  4.800000e+00  0.000000e+00 -4.800000e-02
   endloop
 endfacet
 facet normal  1.127759e-01 -9.936204e-01  0.000000e+00
   outer loop
     vertex  4.800000e+00  0.000000e+00 -4.800000e-02
     vertex  5.000000e+00  2.270000e-02 -4.800000e-02
     vertex  5.000000e+00  2.270000e-02  1.720000e-01
   endloop
 endfacet
 facet normal  1.127759e-01 -9.936204e-01  0.000000e+00
   outer loop
     vertex  4.800000e+00  0.000000e+00 -4.800000e-02
     vertex  5.000000e+00  2.270000e-02  1.720000e-01
     vertex  4.800000e+00  0.000000e+00  1.720000e-01
   endloop
 endfacet
 facet normal  1.127759e-01  9.936204e-01  0.000000e+00
   outer loop
     vertex  4.800000e+00  8.140000e-02 -4.800000e-02
     vertex  5.000000e+00  5.870000e-02  1.720000e-01
     vertex  5.000000e+00  5.870000e-02 -4.800000e-02
   endloop
 endfacet
 facet normal  1.127759e-01  9.936204e-01 -0.000000e+00
   outer loop
     vertex  4.800000e+00  8.140000e-02 -4.800000e-02
     vertex  4.800000e+00  8.140000e-02  1.720000e-01
     vertex  5.000000e+00  5.870000e-02  1.720000e-01
   endloop
 endfacet
 facet normal  0.000000e+00 -1.000000e+00  0.000000e+00
   outer loop
     vertex  5.000000e+00  2.270000e-02 -4.800000e-02
     vertex  5.056000e+00  2.270000e-02  1.720000e-01
     vertex  5.000000e+00  2.270000e-02  1.720000e-01
   endloop
 endfacet
 facet normal  0.000000e+00 -1.000000e+00  0.000000e+00
   outer loop
     vertex  5.056000e+00  2.270000e-02 -7.920000e-02
     vertex  5.056000e+00  2.270000e-02  1.720000e-01
     vertex  5.000000e+00  2.270000e-02 -4.800000e-02
   endloop
 endfacet
 facet normal -0.000000e+00  1.000000e+00  0.000000e+00
   outer loop
     vertex  5.000000e+00  5.870000e-02 -4.800000e-02
     vertex  5.056000e+00  5.870000e-02  1.720000e-01
     vertex  5.056000e+00  5.870000e-02 -7.920000e-02
   endloop
 endfacet
 facet normal  0.000000e+00  1.000000e+00  0.000000e+00
   outer loop
     vertex  5.000000e+00  5.870000e-02 -4.800000e-02
     vertex  5.000000e+00  5.870000e-02  1.720000e-01
     vertex  5.056000e+00  5.870000e-02  1.720000e-01
   endloop
 endfacet
 facet normal -1.889091e-01 -9.819946e-01  0.000000e+00
   outer loop
     vertex  5.174000e+00  0.000000e+00 -5.700000e-02
     vertex  5.174000e+00  0.000000e+00  1.720000e-01
     vertex  5.056000e+00  2.270000e-02  1.720000e-01
   endloop
 endfacet
 facet normal -1.889091e-01 -9.819946e-01  0.000000e+00
   outer loop
     vertex  5.174000e+00  0.000000e+00 -5.700000e-02
     vertex  5.056000e+00  2.270000e-02  1.720000e-01
     vertex  5.056000e+00  2.270000e-02 -7.920000e-02
   endloop
 endfacet
 facet normal -1.889091e-01  9.819946e-01  0.000000e+00
   outer loop
     vertex  5.174000e+00  8.140000e-02 -5.700000e-02
     vertex  5.056000e+00  5.870000e-02  1.720000e-01
     vertex  5.174000e+00  8.140000e-02  1.720000e-01
   endloop
 endfacet
 facet normal -1.889091e-01  9.819946e-01  0.000000e+00
   outer loop
     vertex  5.174000e+00  8.140000e-02 -5.700000e-02
     vertex  5.056000e+00  5.870000e-02 -7.920000e-02
     vertex  5.056000e+00  5.870000e-02  1.720000e-01
   endloop
 endfacet
 facet normal  0.000000e+00 -1.000000e+00  0.000000e+00
   outer loop
     vertex  5.474000e+00  0.000000e+00 -6.000000e-02
     vertex  5.174000e+00  0.000000e+00  1.720000e-01
     vertex  5.174000e+00  0.000000e+00 -5.700000e-02
   endloop
 endfacet
 facet normal  0.000000e+00 -1.000000e+00  0.000000e+00
   outer loop
     vertex  5.700000e+00  0.000000e+00 -1.600000e-01
     vertex  5.474000e+00  0.000000e+00 -6.000000e-02
     vertex  5.474000e+00  0.000000e+00 -1.600000e-01
   endloop
 endfacet
 facet normal  0.000000e+00 -1.000000e+00 -0.000000e+00
   outer loop
     vertex  5.700000e+00  0.000000e+00  1.720000e-01
     vertex  5.474000e+00  0.000000e+00 -6.000000e-02
     vertex  5.700000e+00  0.000000e+00 -1.600000e-01
   endloop
 endfacet
 facet normal -0.000000e+00 -1.000000e+00  0.000000e+00
   outer loop
     vertex  5.700000e+00  0.000000e+00  1.720000e-01
     vertex  5.174000e+00  0.000000e+00  1.720000e-01
     vertex  5.474000e+00  0.000000e+00 -6.000000e-02
   endloop
 endfacet
 facet normal  0.000000e+00  1.000000e+00 -0.000000e+00
   outer loop
     vertex  5.474000e+00  8.140000e-02 -6.000000e-02
     vertex  5.174000e+00  8.140000e-02  1.720000e-01
     vertex  5.700000e+00  8.140000e-02  1.720000e-01
   endloop
 endfacet
 facet normal  0.000000e+00  1.000000e+00  0.000000e+00
   outer loop
     vertex  5.474000e+00  8.140000e-02 -6.000000e-02
     vertex  5.174000e+00  8.140000e-02 -5.700000e-02
     vertex  5.174000e+00  8.140000e-02  1.720000e-01
   endloop
 endfacet
 facet normal  0.000000e+00  1.000000e+00  0.000000e+00
   outer loop
     vertex  5.700000e+00  8.140000e-02 -1.600000e-01
     vertex  5.474000e+00  8.140000e-02 -1.600000e-01
     vertex  5.474000e+00  8.140000e-02 -6.000000e-02
   endloop
 endfacet
 facet normal  0.000000e+00  1.000000e+00 -0.000000e+00
   outer loop
     vertex  5.700000e+00  8.140000e-02 -1.600000e-01
     vertex  5.474000e+00  8.140000e-02 -6.000000e-02
     vertex  5.700000e+00  8.140000e-02  1.720000e-01
   endloop
 endfacet
 facet normal  0.000000e+00  0.000000e+00 -1.000000e+00
   outer loop
     vertex  4.800000e+00  8.140000e-02 -4.800000e-02
     vertex  5.000000e+00  5.870000e-02 -4.800000e-02
     vertex  5.000000e+00  2.270000e-02 -4.800000e-02
   endloop
 endfacet
 facet normal  0.000000e+00  0.000000e+00 -1.000000e+00
   outer loop
     vertex  4.800000e+00  8.140000e-02 -4.800000e-02
     vertex  5.000000e+00  2.270000e-02 -4.800000e-02
     vertex  4.800000e+00  0.000000e+00 -4.800000e-02
   endloop
 endfacet
 facet normal -4.867022e-01  0.000000e+00 -8.735680e-01
   outer loop
     vertex  5.000000e+00  5.870000e-02 -4.800000e-02
     vertex  5.056000e+00  5.870000e-02 -7.920000e-02
     vertex  5.056000e+00  2.270000e-02 -7.920000e-02
   endloop
 endfacet
 facet normal -4.867022e-01 -0.000000e+00 -8.735680e-01
   outer loop
     vertex  5.000000e+00  5.870000e-02 -4.800000e-02
     vertex  5.056000e+00  2.270000e-02 -7.920000e-02
     vertex  5.000000e+00  2.270000e-02 -4.800000e-02
   endloop
 endfacet
 facet normal  1.848919e-01  0.000000e+00 -9.827589e-01
   outer loop
     vertex  5.056000e+00  5.870000e-02 -7.920000e-02
     vertex  5.174000e+00  8.140000e-02 -5.700000e-02
     vertex  5.174000e+00  0.000000e+00 -5.700000e-02
   endloop
 endfacet
 facet normal  1.848919e-01  0.000000e+00 -9.827589e-01
   outer loop
     vertex  5.056000e+00  5.870000e-02 -7.920000e-02
     vertex  5.174000e+00  0.000000e+00 -5.700000e-02
     vertex  5.056000e+00  2.270000e-02 -7.920000e-02
   endloop
 endfacet
 facet normal -9.999500e-03  0.000000e+00 -9.999500e-01
   outer loop
     vertex  5.174000e+00  8.140000e-02 -5.700000e-02
     vertex  5.474000e+00  8.140000e-02 -6.000000e-02
     vertex  5.474000e+00  0.000000e+00 -6.000000e-02
   endloop
 endfacet
 facet normal -9.999500e-03 -0.000000e+00 -9.999500e-01
   outer loop
     vertex  5.174000e+00  8.140000e-02 -5.700000e-02
     vertex  5.474000e+00  0.000000e+00 -6.000000e-02
     vertex  5.174000e+00  0.000000e+00 -5.700000e-02
   endloop
 endfacet
 facet normal -1.000000e+00  0.000000e+00  0.000000e+00
   outer loop
     vertex  5.474000e+00  0.000000e+00 -6.000000e-02
     vertex  5.474000e+00  8.140000e-02 -1.600000e-01
     vertex  5.474000e+00  0.000000e+00 -1.600000e-01
   endloop
 endfacet
 facet normal -1.000000e+00  0.000000e+00  0.000000e+00
   outer loop
     vertex  5.474000e+00  0.000000e+00 -6.000000e-02
     vertex  5.474000e+00  8.140000e-02 -6.000000e-02
     vertex  5.474000e+00  8.140000e-02 -1.600000e-01
   endloop
 endfacet
 facet normal  0.000000e+00 -0.000000e+00 -1.000000e+00
   outer loop
     vertex  5.700000e+00  8.140000e-02 -1.600000e-01
     vertex  5.700000e+00  0.000000e+00 -1.600000e-01
     vertex  5.474000e+00  0.000000e+00 -1.600000e-01
   endloop
 endfacet
 facet normal -0.000000e+00  0.000000e+00 -1.000000e+00
   outer loop
     vertex  5.700000e+00  8.140000e-02 -1.600000e-01
     vertex  5.474000e+00  0.000000e+00 -1.600000e-01
     vertex  5.474000e+00  8.140000e-02 -1.600000e-01
   endloop
 endfacet
endsolid
